<svg width="130" height="36" viewBox="0 0 130 36" fill="none" xmlns="http://www.w3.org/2000/svg">
<rect x="1.5" y="3" width="12" height="6" stroke="#006CFE" stroke-width="3"/>
<rect x="14.5" y="3" width="12" height="6" stroke="#006CFE" stroke-width="3"/>
<rect x="27.5" y="3" width="12" height="6" stroke="#006CFE" stroke-width="3"/>
<rect x="1.5" y="15" width="12" height="6" stroke="#006CFE" stroke-width="3"/>
<rect x="14.5" y="15" width="12" height="6" stroke="#006CFE" stroke-width="3"/>
<rect x="27.5" y="15" width="12" height="6" stroke="#006CFE" stroke-width="3"/>
<rect x="1.5" y="27" width="12" height="6" stroke="#006CFE" stroke-width="3"/>
<rect x="14.5" y="27" width="12" height="6" stroke="#006CFE" stroke-width="3"/>
<rect x="27.5" y="27" width="12" height="6" stroke="#006CFE" stroke-width="3"/>
<path d="M57.192 14.192C55.5387 14.192 54.1627 13.68 53.064 12.656C51.9653 11.6213 51.416 10.2933 51.416 8.672C51.416 7.04 51.96 5.712 53.048 4.688C54.1467 3.664 55.528 3.152 57.192 3.152C59.336 3.152 60.888 4.10667 61.848 6.016L59.48 7.136C59.2987 6.69867 58.9947 6.33067 58.568 6.032C58.152 5.73333 57.6933 5.584 57.192 5.584C56.328 5.584 55.6133 5.88267 55.048 6.48C54.4933 7.06667 54.216 7.79733 54.216 8.672C54.216 9.54667 54.4933 10.2827 55.048 10.88C55.6133 11.4667 56.328 11.76 57.192 11.76C57.6933 11.76 58.152 11.6107 58.568 11.312C58.9947 11.0133 59.2987 10.6453 59.48 10.208L61.848 11.328C61.4427 12.1387 60.856 12.8213 60.088 13.376C59.3307 13.92 58.3653 14.192 57.192 14.192ZM65.6941 14H63.0381V3.328H65.7901V9.616L70.1101 3.328H72.9581V14H70.1901V7.408L65.6941 14ZM80.1139 14.192C78.4605 14.192 77.0845 13.68 75.9859 12.656C74.8872 11.6213 74.3379 10.2933 74.3379 8.672C74.3379 7.04 74.8819 5.712 75.9699 4.688C77.0685 3.664 78.4499 3.152 80.1139 3.152C82.2579 3.152 83.8099 4.10667 84.7699 6.016L82.4019 7.136C82.2205 6.69867 81.9165 6.33067 81.4899 6.032C81.0739 5.73333 80.6152 5.584 80.1139 5.584C79.2499 5.584 78.5352 5.88267 77.9699 6.48C77.4152 7.06667 77.1379 7.79733 77.1379 8.672C77.1379 9.54667 77.4152 10.2827 77.9699 10.88C78.5352 11.4667 79.2499 11.76 80.1139 11.76C80.6152 11.76 81.0739 11.6107 81.4899 11.312C81.9165 11.0133 82.2205 10.6453 82.4019 10.208L84.7699 11.328C84.3645 12.1387 83.7779 12.8213 83.0099 13.376C82.2525 13.92 81.2872 14.192 80.1139 14.192ZM91.096 14H88.344V5.728H85.352V3.328H94.072V5.728H91.096V14ZM103.206 14H95.3819V3.328H103.206V5.728H98.1339V7.392H103.094V9.792H98.1339V11.6H103.206V14ZM116.916 14H114.164V7.056L111.46 14H110.244L107.556 7.056V14H104.804V3.328H108.628L110.852 9.12L113.092 3.328H116.916V14ZM129.203 14H126.083L125.555 12.464H121.347L120.819 14H117.699L121.715 3.328H125.171L129.203 14ZM124.803 10.064L123.443 6.048L122.083 10.064H124.803ZM57.096 32H54.344V23.728H51.352V21.328H60.072V23.728H57.096V32ZM70.7655 32H67.6455L67.1175 30.464H62.9095L62.3815 32H59.2615L63.2775 21.328H66.7335L70.7655 32ZM66.3655 28.064L65.0055 24.048L63.6455 28.064H66.3655ZM71.5538 21.328H79.8898V23.728H74.3058V25.104H76.9938C78.1244 25.104 79.0098 25.4347 79.6498 26.096C80.2898 26.7467 80.6098 27.5627 80.6098 28.544C80.6098 29.5253 80.2898 30.3467 79.6498 31.008C79.0098 31.6693 78.1244 32 76.9938 32H71.5538V21.328ZM76.6578 27.504H74.3058V29.6H76.6578C76.9991 29.6 77.2764 29.5093 77.4898 29.328C77.7031 29.136 77.8098 28.8747 77.8098 28.544C77.8098 28.224 77.7031 27.9733 77.4898 27.792C77.2764 27.6 76.9991 27.504 76.6578 27.504ZM81.243 32.192V29.76C81.7763 29.76 82.1923 29.5467 82.491 29.12C82.8003 28.6827 83.0297 27.888 83.179 26.736L83.819 21.328H91.771V32H89.019V23.728H86.299L85.915 26.944C85.787 27.9893 85.5843 28.8693 85.307 29.584C85.0297 30.288 84.6777 30.8267 84.251 31.2C83.8243 31.5627 83.371 31.8187 82.891 31.968C82.4217 32.1173 81.8723 32.192 81.243 32.192ZM96.3504 32H93.6944V21.328H96.4464V27.616L100.766 21.328H103.614V32H100.846V25.408L96.3504 32ZM113.666 33.968V32H105.538V21.328H108.29V29.6H112.722V21.328H115.474V29.6H116.434V33.968H113.666Z" fill="#006CFE"/>
</svg>
